<svg width="40" height="40" viewBox="0 0 40 40" fill="none" xmlns="http://www.w3.org/2000/svg">
<path d="M28.961 0H11.0383C4.95176 0 0 4.952 0 11.0385V28.9613C0 35.048 4.95176 39.9998 11.0383 39.9998H28.961C35.048 39.9998 39.9998 35.0478 39.9998 28.9613V11.0385C40 4.952 35.048 0 28.961 0ZM36.451 28.9613C36.451 33.0911 33.0911 36.4508 28.9613 36.4508H11.0383C6.90867 36.451 3.54897 33.0911 3.54897 28.9613V11.0385C3.54897 6.9089 6.90867 3.54897 11.0383 3.54897H28.961C33.0909 3.54897 36.4508 6.9089 36.4508 11.0385V28.9613H36.451Z" fill="#F0F0F0"/>
<path d="M19.9998 9.69348C14.3165 9.69348 9.69287 14.3171 9.69287 20.0004C9.69287 25.6835 14.3165 30.3069 19.9998 30.3069C25.6831 30.3069 30.3067 25.6835 30.3067 20.0004C30.3067 14.3171 25.6831 9.69348 19.9998 9.69348ZM19.9998 26.7577C16.2736 26.7577 13.2418 23.7264 13.2418 20.0002C13.2418 16.2737 16.2734 13.2422 19.9998 13.2422C23.7262 13.2422 26.7578 16.2737 26.7578 20.0002C26.7578 23.7264 23.726 26.7577 19.9998 26.7577Z" fill="#F0F0F0"/>
<path d="M30.7391 6.6842C30.0553 6.6842 29.3836 6.96102 28.9007 7.44605C28.4154 7.92871 28.1365 8.60065 28.1365 9.28678C28.1365 9.97079 28.4157 10.6425 28.9007 11.1275C29.3833 11.6102 30.0553 11.8894 30.7391 11.8894C31.4252 11.8894 32.0948 11.6102 32.5798 11.1275C33.0648 10.6425 33.3416 9.97055 33.3416 9.28678C33.3416 8.60065 33.0648 7.92871 32.5798 7.44605C32.0971 6.96102 31.4252 6.6842 30.7391 6.6842Z" fill="#F0F0F0"/>
</svg>
