<svg width="23" height="23" viewBox="0 0 23 23" fill="none" xmlns="http://www.w3.org/2000/svg">
<g clip-path="url(#clip0)">
<path d="M22.7535 17.4424C21.8973 15.8238 18.9241 14.0688 18.7932 13.9921C18.4112 13.7746 18.0125 13.6595 17.6394 13.6595C17.0847 13.6595 16.6306 13.9136 16.3556 14.3758C15.9207 14.896 15.3813 15.5041 15.2504 15.5983C14.2373 16.2856 13.4442 16.2076 12.5667 15.3301L7.66929 10.4322C6.79734 9.56026 6.71718 8.75738 7.39982 7.74984C7.49533 7.61808 8.10335 7.07828 8.62354 6.64294C8.95527 6.44553 9.18295 6.15218 9.28273 5.79231C9.41533 5.31348 9.31769 4.75023 9.00473 4.20147C8.93096 4.07526 7.17511 1.10166 5.55741 0.245905C5.25553 0.0860109 4.91528 0.00158691 4.57417 0.00158691C4.0122 0.00158691 3.48348 0.220748 3.08609 0.617712L2.00393 1.69945C0.292424 3.41053 -0.327112 5.35015 0.161524 7.46416C0.569147 9.22598 1.75705 11.1008 3.69284 13.0361L9.96281 19.3061C12.4128 21.7561 14.7485 22.9986 16.9052 22.9986C16.9052 22.9986 16.9052 22.9986 16.9056 22.9986C18.4918 22.9986 19.9705 22.3245 21.2995 20.9955L22.3812 19.9137C23.0387 19.2567 23.188 18.2632 22.7535 17.4424Z" fill="#F0F0F0"/>
</g>
<defs>
<clipPath id="clip0">
<rect width="23" height="23" fill="white"/>
</clipPath>
</defs>
</svg>
