<svg width="24" height="24" viewBox="0 0 24 24" fill="none" xmlns="http://www.w3.org/2000/svg">
<path d="M23.6975 22.2811L16.8116 15.3903C18.1691 13.7622 18.9855 11.6817 18.9855 9.40933C18.9855 4.2252 14.731 0.0100098 9.49769 0.0100098C4.26437 0.0100098 0 4.23011 0 9.41425C0 14.5984 4.25453 18.8136 9.48786 18.8136C11.711 18.8136 13.7571 18.0512 15.3803 16.7773L22.2908 23.6878C22.6941 24.0912 23.2942 24.0912 23.6975 23.6878C24.1008 23.2845 24.1008 22.6845 23.6975 22.2811ZM2.0166 9.41425C2.0166 5.3417 5.37104 2.03153 9.48786 2.03153C13.6047 2.03153 16.9591 5.3417 16.9591 9.41425C16.9591 13.4868 13.6047 16.797 9.48786 16.797C5.37104 16.797 2.0166 13.4819 2.0166 9.41425Z" fill="#F0F0F0"/>
</svg>
