<svg width="20" height="19" viewBox="0 0 20 19" fill="none" xmlns="http://www.w3.org/2000/svg">
<path d="M18.884 17.6458L13.3967 12.186C14.4785 10.8961 15.1291 9.24767 15.1291 7.44724C15.1291 3.33976 11.7388 0 7.56848 0C3.39817 0 0 3.34366 0 7.45113C0 11.5586 3.39033 14.8984 7.56064 14.8984C9.33223 14.8984 10.9627 14.2943 12.2561 13.285L17.763 18.7603C18.0844 19.0799 18.5626 19.0799 18.884 18.7603C19.2053 18.4408 19.2053 17.9653 18.884 17.6458ZM1.60698 7.45113C1.60698 4.22439 4.28005 1.60168 7.56064 1.60168C10.8412 1.60168 13.5143 4.22439 13.5143 7.45113C13.5143 10.6779 10.8412 13.3006 7.56064 13.3006C4.28005 13.3006 1.60698 10.674 1.60698 7.45113Z" fill="#444444"/>
</svg>
