<svg width="28" height="30" viewBox="0 0 28 30" fill="none" xmlns="http://www.w3.org/2000/svg">
<g clip-path="url(#clip0)">
<path d="M25.1859 25.6341L23.5746 6.82705C23.5457 6.45487 23.2443 6.17274 22.8791 6.17274H19.4827C19.4769 3.04523 17.0195 0.5 13.9998 0.5C10.9801 0.5 8.52268 3.04523 8.51689 6.17274H5.12049C4.76114 6.17274 4.45976 6.45487 4.42498 6.82705L2.81372 25.6341C2.81372 25.6581 2.81372 25.6762 2.81372 25.7002C2.81372 27.7952 4.67421 29.5 6.95779 29.5H21.0418C23.3254 29.5 25.1859 27.7952 25.1859 25.7002C25.1859 25.6762 25.1859 25.6581 25.1859 25.6341ZM13.9998 1.9407C16.2544 1.9407 18.0859 3.83761 18.0917 6.17274H9.9079C9.9137 3.83761 11.7452 1.9407 13.9998 1.9407ZM21.0418 28.0533H6.95779C5.45086 28.0533 4.22213 27.0148 4.20474 25.7242L5.75804 7.61343H8.51689V10.1407C8.51689 10.5368 8.82987 10.861 9.2124 10.861C9.59493 10.861 9.9079 10.5368 9.9079 10.1407V7.61343H18.0917V10.1407C18.0917 10.5368 18.4047 10.861 18.7872 10.861C19.1698 10.861 19.4827 10.5368 19.4827 10.1407V7.61343H22.2416L23.7949 25.7302C23.7775 27.0148 22.5488 28.0533 21.0418 28.0533Z" fill="#C4C4C4"/>
<path d="M16.9473 18.4434C16.9473 19.6465 16.7266 20.5605 16.2852 21.1855C15.8438 21.8066 15.1934 22.1172 14.334 22.1172C13.4902 22.1172 12.8438 21.8125 12.3945 21.2031C11.9453 20.5898 11.7148 19.6992 11.7031 18.5312V17.002C11.7031 15.8027 11.9258 14.8945 12.3711 14.2773C12.8164 13.6602 13.4668 13.3516 14.3223 13.3516C15.166 13.3516 15.8105 13.6504 16.2559 14.248C16.7012 14.8418 16.9316 15.7188 16.9473 16.8789V18.4434ZM16.2441 16.9141C16.2441 15.9375 16.084 15.1992 15.7637 14.6992C15.4473 14.1992 14.9668 13.9492 14.3223 13.9492C13.6895 13.9492 13.2129 14.1934 12.8926 14.6816C12.5723 15.1699 12.4082 15.8906 12.4004 16.8438V18.5195C12.4004 19.4922 12.5645 20.2363 12.8926 20.752C13.2246 21.2676 13.7051 21.5254 14.334 21.5254C14.959 21.5254 15.4316 21.2734 15.752 20.7695C16.0762 20.2656 16.2402 19.5273 16.2441 18.5547V16.9141Z" fill="#C4C4C4"/>
</g>
<defs>
<clipPath id="clip0">
<rect width="28" height="29" fill="white" transform="translate(0 0.5)"/>
</clipPath>
</defs>
</svg>
