<svg width="46" height="42" viewBox="0 0 46 42" fill="none" xmlns="http://www.w3.org/2000/svg">
<path d="M42.6231 0.993186C42.0352 1.02053 41.4815 1.19143 40.9894 1.38283H40.9825C40.4835 1.58108 38.1114 2.57912 34.5089 4.08987C30.9063 5.60744 26.2306 7.57619 21.589 9.53127C12.3194 13.4346 3.20712 17.2764 3.20712 17.2764L3.3165 17.2354C3.3165 17.2354 2.68759 17.4405 2.03134 17.8916C1.69638 18.1104 1.32724 18.4112 1.00595 18.8828C0.68466 19.3545 0.424894 20.0791 0.520598 20.8242C0.677825 22.0889 1.49814 22.8477 2.08603 23.2647C2.68075 23.6885 3.24814 23.8867 3.24814 23.8867H3.26181L11.8067 26.7647C12.1895 27.9951 14.4112 35.2959 14.9444 36.9776C15.2589 37.9824 15.5665 38.6114 15.9493 39.0899C16.1339 39.336 16.3526 39.541 16.6124 39.7051C16.7149 39.7666 16.8243 39.8145 16.9337 39.8555C16.9679 39.876 17.002 39.8828 17.0431 39.8897L16.9542 39.8692C16.9815 39.876 17.002 39.8965 17.0226 39.9033C17.0909 39.9239 17.1388 39.9307 17.2276 39.9444C18.5811 40.3545 19.6681 39.5137 19.6681 39.5137L19.7296 39.4658L24.7745 34.8721L33.2306 41.3594L33.422 41.4414C35.1856 42.2139 36.9698 41.7832 37.9132 41.0244C38.8634 40.2588 39.2325 39.2813 39.2325 39.2813L39.294 39.124L45.8292 5.64846C46.0138 4.82131 46.0616 4.04885 45.8565 3.2969C45.6515 2.54494 45.1251 1.84084 44.4894 1.46487C43.8468 1.08205 43.211 0.965842 42.6231 0.993186ZM42.4454 4.58205C42.4386 4.69143 42.4591 4.67776 42.4112 4.88967V4.91018L35.9376 38.0371C35.9103 38.085 35.8624 38.1875 35.7325 38.2901C35.5958 38.3994 35.4864 38.4678 34.919 38.2422L24.5763 30.3125L18.3282 36.0069L19.6407 27.626C19.6407 27.626 35.8419 12.5254 36.5392 11.876C37.2364 11.2266 37.004 11.0899 37.004 11.0899C37.0519 10.2969 35.9513 10.8574 35.9513 10.8574L14.6436 24.0576L14.6368 24.0235L4.42392 20.585V20.5781C4.41708 20.5781 4.40341 20.5713 4.39657 20.5713C4.40341 20.5713 4.45126 20.5508 4.45126 20.5508L4.50595 20.5235L4.56064 20.503C4.56064 20.503 13.6798 16.6612 22.9493 12.7578C27.5909 10.8028 32.2667 8.83401 35.8624 7.31643C39.4581 5.80569 42.1173 4.69826 42.2677 4.63674C42.4112 4.58205 42.3429 4.58205 42.4454 4.58205Z" fill="#F0F0F0"/>
</svg>
